<svg xmlns="http://www.w3.org/2000/svg" xmlns:xlink="http://www.w3.org/1999/xlink" width="500" zoomAndPan="magnify" viewBox="0 0 375 374.999991" height="500" preserveAspectRatio="xMidYMid meet" version="1.0"><defs><g/><clipPath id="b5e9a9a8ec"><path d="M 143.34375 59.558594 L 231.84375 59.558594 L 231.84375 109.808594 L 143.34375 109.808594 Z M 143.34375 59.558594 " clip-rule="nonzero"/></clipPath><clipPath id="36436af75f"><path d="M 111 103 L 260 103 L 260 224 L 111 224 Z M 111 103 " clip-rule="nonzero"/></clipPath><clipPath id="3aae06ab0a"><path d="M 96.679688 186.296875 L 163.546875 75.976562 L 278.355469 145.5625 L 211.488281 255.882812 Z M 96.679688 186.296875 " clip-rule="nonzero"/></clipPath><clipPath id="a533d14ffe"><path d="M 96.679688 186.296875 L 163.546875 75.976562 L 278.355469 145.5625 L 211.488281 255.882812 Z M 96.679688 186.296875 " clip-rule="nonzero"/></clipPath></defs><g clip-path="url(#b5e9a9a8ec)"><path fill="#ffffff" d="M 231.84375 76.957031 L 229.421875 79.230469 L 229.777344 80.789062 C 218.15625 93.738281 210.480469 99.859375 208.238281 96.597656 C 206.449219 90.402344 207.34375 84.277344 210.160156 78.199219 L 212.550781 77.074219 L 213.015625 71.746094 L 209.339844 75.613281 L 210.089844 78.207031 C 207.050781 83.332031 203.785156 87.871094 200.054688 91.1875 C 196.121094 94.679688 194.921875 95.171875 192.378906 89.675781 C 190.496094 85.609375 189.851562 80.15625 188.582031 75.394531 L 191.804688 71.617188 L 187.597656 59.570312 L 183.386719 71.617188 L 186.605469 75.394531 C 185.339844 80.152344 184.695312 85.609375 182.8125 89.675781 C 180.269531 95.171875 179.070312 94.679688 175.136719 91.1875 C 171.402344 87.871094 168.136719 83.332031 165.101562 78.207031 L 165.851562 75.617188 L 162.175781 71.746094 L 162.636719 77.074219 L 165.03125 78.203125 C 167.847656 84.277344 168.742188 90.402344 166.953125 96.597656 C 164.710938 99.859375 157.035156 93.738281 145.410156 80.789062 L 145.769531 79.230469 L 143.34375 76.957031 L 143.824219 80.253906 L 145.261719 80.832031 L 161.820312 109.808594 L 156.734375 95.730469 C 156.835938 95.816406 156.941406 95.898438 157.042969 95.984375 C 159.636719 98.070312 164.179688 101.449219 167.621094 99.4375 C 168.207031 99.09375 168.695312 98.628906 169.078125 98.070312 L 169.3125 97.722656 L 169.429688 97.320312 C 170.125 94.917969 170.449219 92.527344 170.453125 90.164062 C 171.398438 91.214844 172.390625 92.207031 173.429688 93.132812 C 175.179688 94.6875 177.398438 96.734375 179.925781 96.359375 C 182.660156 95.957031 184.109375 93.023438 185.152344 90.769531 C 186.308594 88.273438 187 85.488281 187.597656 82.757812 C 188.191406 85.488281 188.882812 88.273438 190.039062 90.769531 C 191.082031 93.023438 192.53125 95.957031 195.265625 96.359375 C 197.796875 96.734375 200.011719 94.6875 201.761719 93.132812 C 202.800781 92.207031 203.792969 91.214844 204.738281 90.164062 C 204.742188 92.527344 205.066406 94.917969 205.761719 97.320312 L 205.878906 97.722656 L 206.113281 98.070312 C 206.5 98.628906 206.984375 99.09375 207.570312 99.4375 C 211.015625 101.449219 215.554688 98.070312 218.148438 95.984375 C 218.25 95.898438 218.355469 95.816406 218.457031 95.730469 L 213.996094 108.765625 L 229.933594 80.832031 L 231.367188 80.253906 Z M 231.84375 76.957031 " fill-opacity="1" fill-rule="evenodd"/></g><path fill="#ffffff" d="M 178.902344 87.710938 C 179.199219 89.070312 179.535156 90.449219 179.988281 91.765625 C 180.289062 91.367188 180.699219 90.699219 181.242188 89.582031 C 180.417969 86.523438 179.964844 83.050781 178.902344 80.253906 C 177.757812 83.273438 177.320312 87.089844 176.359375 90.3125 C 176.785156 90.691406 177.347656 91.175781 177.882812 91.582031 C 178.304688 90.320312 178.621094 89.007812 178.902344 87.710938 Z M 178.902344 87.710938 " fill-opacity="1" fill-rule="evenodd"/><path fill="#ffffff" d="M 196.261719 87.710938 C 196.546875 89.011719 196.863281 90.332031 197.289062 91.597656 C 197.820312 91.195312 198.382812 90.710938 198.8125 90.332031 C 197.847656 87.105469 197.410156 83.28125 196.261719 80.253906 C 195.203125 83.039062 194.753906 86.496094 193.933594 89.546875 C 194.472656 90.664062 194.882812 91.335938 195.1875 91.742188 C 195.636719 90.433594 195.964844 89.0625 196.261719 87.710938 Z M 196.261719 87.710938 " fill-opacity="1" fill-rule="evenodd"/><path fill="#ffffff" d="M 211.605469 95.523438 C 211.917969 93.453125 212.457031 91.277344 212.507812 89.332031 C 211.292969 90.625 210.226562 92.34375 209.113281 93.921875 C 209.214844 94.496094 209.34375 95.066406 209.492188 95.640625 C 209.832031 95.195312 210.15625 94.738281 210.472656 94.285156 C 210.371094 94.84375 210.277344 95.410156 210.207031 95.980469 C 210.554688 95.933594 211.007812 95.804688 211.605469 95.523438 Z M 211.605469 95.523438 " fill-opacity="1" fill-rule="evenodd"/><path fill="#ffffff" d="M 166.078125 93.921875 C 164.960938 92.34375 163.898438 90.625 162.679688 89.332031 C 162.734375 91.273438 163.269531 93.453125 163.585938 95.523438 C 164.179688 95.800781 164.636719 95.933594 164.984375 95.976562 C 164.910156 95.410156 164.816406 94.84375 164.71875 94.28125 C 165.035156 94.738281 165.359375 95.195312 165.699219 95.636719 C 165.847656 95.070312 165.976562 94.496094 166.078125 93.921875 Z M 166.078125 93.921875 " fill-opacity="1" fill-rule="evenodd"/><g clip-path="url(#36436af75f)"><g clip-path="url(#3aae06ab0a)"><g clip-path="url(#a533d14ffe)"><path fill="#ffffff" d="M 258.042969 178.488281 C 257.792969 178.660156 256.46875 179.40625 255.101562 180.144531 C 253.734375 180.882812 251.9375 181.910156 251.109375 182.429688 C 250.277344 182.949219 249.101562 183.550781 248.492188 183.769531 C 247.882812 183.984375 247.316406 184.273438 247.230469 184.414062 C 247.144531 184.554688 246.851562 185.324219 246.578125 186.125 C 245.382812 189.621094 244.089844 192.265625 241.351562 196.785156 C 238.511719 201.476562 237.332031 203.089844 234.195312 206.523438 C 228.085938 213.214844 220.492188 218.527344 212.421875 221.742188 C 210.246094 222.609375 209.773438 222.777344 208.476562 223.117188 C 207.742188 223.3125 207.421875 223.378906 207.773438 223.265625 C 209.175781 222.8125 214.1875 220.574219 216.378906 219.425781 C 229.472656 212.542969 239.578125 201.320312 244.910156 187.742188 C 245.210938 186.976562 245.453125 186.171875 245.445312 185.957031 C 245.433594 185.660156 244.980469 185.121094 243.535156 183.695312 C 242.496094 182.667969 241.59375 181.835938 241.53125 181.851562 C 241.472656 181.863281 241.144531 182.851562 240.800781 184.042969 C 240.058594 186.613281 238.871094 189.796875 237.601562 192.597656 C 236.460938 195.121094 232.789062 201.261719 231.132812 203.421875 C 227.625 207.988281 223.53125 212.058594 219.023438 215.464844 C 217.828125 216.363281 213.933594 218.847656 213.820312 218.777344 C 213.78125 218.753906 213.960938 218.585938 214.21875 218.398438 C 214.480469 218.214844 215.480469 217.507812 216.441406 216.824219 C 225.511719 210.398438 232.851562 201.382812 237.109375 191.4375 C 238.820312 187.449219 240.730469 181.273438 240.464844 180.601562 C 240.414062 180.46875 239.625 179.242188 238.714844 177.867188 C 236.957031 175.226562 236.707031 174.699219 237.066406 174.417969 C 237.414062 174.152344 238.242188 174.394531 239.800781 175.21875 C 240.582031 175.632812 241.28125 175.941406 241.351562 175.90625 C 241.421875 175.867188 241.546875 175.316406 241.625 174.679688 L 241.765625 173.519531 L 241.050781 172.855469 C 238.785156 170.753906 237.199219 167.761719 237.042969 165.292969 C 236.949219 163.789062 237.734375 163.828125 240.324219 165.46875 C 241.425781 166.167969 241.84375 166.371094 241.921875 166.242188 C 242.097656 165.949219 241.894531 163.015625 241.476562 159.777344 C 241.230469 157.894531 241.21875 157.867188 240.394531 156.953125 C 238.476562 154.828125 237.015625 152.003906 236.089844 148.628906 C 235.726562 147.304688 235.664062 146.777344 235.828125 146.507812 C 236.132812 146.011719 236.742188 145.929688 237.359375 146.304688 C 238.058594 146.726562 238.160156 146.457031 237.710938 145.371094 C 232.457031 132.621094 223.34375 122.238281 211.613281 115.640625 C 206.097656 112.535156 201.25 110.675781 195.019531 109.273438 C 184.089844 106.808594 172.441406 107.550781 161.871094 111.378906 C 159.011719 112.414062 158.007812 112.886719 155.972656 114.164062 C 149.679688 118.113281 143.875 123.542969 139.472656 129.597656 C 137.734375 131.992188 134.132812 138.199219 133.050781 140.667969 C 131.71875 143.707031 130.5625 147.074219 129.722656 150.355469 L 129.367188 151.746094 L 130.253906 152.152344 C 132.042969 152.980469 133.59375 154.492188 135.796875 157.554688 C 136.398438 158.390625 137.238281 159.480469 137.660156 159.972656 C 138.425781 160.867188 138.558594 161.320312 138.085938 161.433594 C 137.769531 161.511719 134.257812 160.007812 133.019531 159.265625 C 131.460938 158.335938 130.867188 157.507812 129.613281 154.519531 C 129.425781 154.082031 129.207031 153.707031 129.121094 153.6875 C 128.84375 153.632812 127.957031 159.8125 128.183594 160.25 C 128.234375 160.355469 128.84375 160.550781 129.53125 160.683594 C 131.101562 160.984375 133.128906 162.121094 134.011719 163.191406 C 135.789062 165.347656 140.054688 171.144531 140.019531 171.351562 C 139.933594 171.820312 139.394531 171.730469 136.996094 170.863281 C 131.960938 169.039062 130.074219 167.261719 128.382812 162.742188 C 128.273438 162.449219 128.121094 162.222656 128.042969 162.242188 C 127.765625 162.308594 127.886719 169.28125 128.203125 171.253906 L 128.3125 171.960938 L 129.628906 172.535156 C 130.597656 172.960938 131.253906 173.351562 132.101562 174.019531 C 134.757812 176.105469 135.578125 177.476562 138.371094 184.515625 C 140.058594 188.769531 140.128906 189.332031 138.933594 189.074219 C 138.03125 188.882812 135.050781 186.175781 133.570312 184.203125 C 131.507812 181.453125 130.183594 178.914062 129.242188 175.898438 C 129 175.121094 128.765625 174.542969 128.722656 174.609375 C 128.582031 174.84375 129.324219 178.570312 130.007812 181.070312 C 130.769531 183.855469 132.378906 188.375 132.667969 188.550781 C 132.773438 188.613281 133.457031 188.855469 134.195312 189.09375 C 135.800781 189.609375 137.121094 190.378906 138.074219 191.359375 C 139.445312 192.765625 142.296875 196.738281 142.226562 197.140625 C 142.101562 197.832031 141.4375 197.769531 139.394531 196.875 C 138.121094 196.316406 136.738281 195.355469 135.632812 194.261719 L 135.332031 193.964844 L 135.484375 194.449219 C 135.683594 195.074219 137.984375 198.757812 139.453125 200.796875 C 142.882812 205.5625 147.535156 210.261719 152.554688 214.035156 C 155.859375 216.519531 161.167969 219.515625 165.339844 221.253906 C 166.8125 221.867188 166.9375 221.941406 167.019531 222.289062 C 167.234375 223.195312 165.835938 222.765625 160.8125 220.371094 C 158.523438 219.285156 151.707031 214.964844 149.707031 213.34375 C 142.027344 207.097656 136.277344 199.789062 132.21875 191.117188 C 131.746094 190.113281 131.304688 189.253906 131.234375 189.210938 C 131.164062 189.167969 130.75 189.714844 130.3125 190.425781 C 129.875 191.132812 129.257812 191.988281 128.9375 192.320312 C 128.234375 193.050781 128.242188 193.085938 129.535156 195.515625 C 130.460938 197.253906 130.628906 197.453125 130.855469 197.074219 C 131.097656 196.667969 131.507812 195.121094 131.460938 194.796875 C 131.40625 194.445312 131.753906 194.125 132.015625 194.28125 C 132.386719 194.507812 133.4375 196.285156 133.6875 197.109375 C 134.007812 198.175781 133.902344 199.652344 133.449219 200.40625 C 133.261719 200.71875 133.109375 201.082031 133.113281 201.214844 C 133.121094 201.535156 135.027344 204.128906 136.726562 206.132812 C 141.144531 211.339844 145.691406 215.207031 151.835938 218.976562 C 154.261719 220.46875 155.058594 221.011719 154.753906 220.972656 C 154.015625 220.871094 146.742188 216.363281 144.65625 214.707031 C 140.714844 211.582031 136.960938 207.820312 134.011719 204.035156 C 133.289062 203.113281 132.636719 202.316406 132.558594 202.269531 C 132.476562 202.222656 132.3125 202.257812 132.191406 202.351562 C 131.886719 202.585938 131.15625 203.84375 130.867188 204.625 C 130.417969 205.847656 129.679688 205.78125 129.449219 204.5 C 129.242188 203.320312 129.445312 201.84375 130.144531 199.523438 C 130.332031 198.90625 130.292969 198.734375 129.71875 197.75 C 129.375 197.152344 128.789062 196.105469 128.421875 195.425781 C 128.054688 194.746094 127.675781 194.140625 127.578125 194.082031 C 127.46875 194.015625 127.070312 194.320312 126.566406 194.855469 C 125.28125 196.222656 125.132812 196.398438 124.136719 197.722656 C 123.621094 198.402344 123.113281 198.980469 123.003906 199.003906 C 122.542969 199.117188 122.476562 198.546875 122.800781 197.25 C 123.539062 194.3125 123.910156 193.269531 124.820312 191.59375 L 125.742188 189.898438 L 124.800781 187.203125 C 124.28125 185.71875 123.613281 183.625 123.320312 182.546875 C 122.980469 181.304688 122.703125 180.601562 122.566406 180.636719 C 122.21875 180.71875 119.734375 182.675781 117.480469 184.636719 C 116.332031 185.640625 115.253906 186.480469 115.085938 186.503906 C 113.890625 186.679688 114.320312 183.964844 115.882812 181.4375 C 116.730469 180.070312 118.246094 178.480469 120.503906 176.59375 C 121.046875 176.140625 121.558594 175.660156 121.644531 175.519531 C 121.726562 175.382812 121.691406 174.148438 121.5625 172.777344 C 121.433594 171.40625 121.316406 169.566406 121.300781 168.691406 C 121.285156 167.816406 121.210938 167.058594 121.128906 167.007812 C 120.824219 166.8125 114.8125 168.277344 113.4375 168.882812 C 112.648438 169.226562 111.933594 169.511719 111.84375 169.511719 C 111.753906 169.511719 111.636719 169.347656 111.589844 169.140625 C 111.519531 168.859375 111.601562 168.644531 111.9375 168.25 C 113.792969 166.054688 116.410156 164.367188 119.851562 163.144531 C 120.578125 162.886719 121.226562 162.582031 121.296875 162.46875 C 121.367188 162.351562 121.519531 161.335938 121.640625 160.207031 C 121.757812 159.078125 121.957031 157.59375 122.078125 156.902344 C 122.199219 156.210938 122.25 155.617188 122.1875 155.582031 C 122.046875 155.496094 120.292969 156.089844 118.488281 156.832031 C 116.59375 157.617188 116.117188 157.378906 116.925781 156.0625 C 117.589844 154.980469 119.453125 153.703125 121.652344 152.824219 C 122.289062 152.570312 122.867188 152.269531 122.9375 152.152344 C 123.007812 152.039062 123.417969 150.789062 123.84375 149.378906 C 128.660156 133.539062 139.550781 120.429688 154.089844 112.972656 C 155.03125 112.488281 157.140625 111.40625 158.773438 110.566406 C 166.816406 106.429688 174.128906 104.226562 182.410156 103.441406 C 197.820312 101.980469 213.429688 106.433594 225.742188 115.800781 C 232.226562 120.730469 237.988281 127.234375 241.882812 134.011719 C 242.402344 134.917969 242.886719 135.648438 242.957031 135.632812 C 243.023438 135.613281 243.148438 135.320312 243.230469 134.972656 C 244.179688 130.996094 244.617188 129.976562 245.261719 130.253906 C 245.746094 130.460938 246.394531 132.148438 246.660156 133.898438 C 246.960938 135.890625 247.160156 140.671875 247.042969 142.996094 C 246.949219 144.824219 246.992188 145.121094 247.695312 147.441406 C 248.109375 148.808594 248.574219 150.488281 248.726562 151.171875 C 248.878906 151.859375 249.046875 152.410156 249.101562 152.394531 C 249.15625 152.382812 249.390625 151.835938 249.621094 151.179688 C 249.953125 150.25 250.617188 149.042969 252.632812 145.71875 C 254.054688 143.371094 255.371094 141.332031 255.554688 141.1875 C 256.300781 140.609375 256.871094 141.238281 257.210938 143.019531 C 257.800781 146.113281 256.789062 148.523438 252.796875 153.523438 C 251.699219 154.898438 250.585938 156.378906 250.324219 156.8125 C 249.875 157.558594 249.851562 157.699219 249.996094 159.132812 C 250.179688 161.027344 250.332031 164.617188 250.285156 166.058594 C 250.265625 166.652344 250.292969 167.164062 250.34375 167.195312 C 250.398438 167.226562 250.726562 166.957031 251.078125 166.601562 C 251.429688 166.242188 252.679688 165.277344 253.863281 164.460938 C 255.042969 163.640625 256.574219 162.472656 257.269531 161.867188 C 259.113281 160.25 259.136719 160.234375 259.46875 160.503906 C 260.054688 160.984375 259.4375 163.449219 258.226562 165.460938 C 257.0625 167.394531 256.144531 168.148438 253.457031 169.371094 C 252.265625 169.914062 251.046875 170.425781 250.742188 170.511719 C 250.4375 170.59375 250.152344 170.726562 250.105469 170.800781 C 250.058594 170.875 249.90625 171.914062 249.761719 173.109375 C 249.617188 174.304688 249.25 176.425781 248.941406 177.824219 C 248.632812 179.222656 248.429688 180.394531 248.488281 180.429688 C 248.546875 180.464844 248.957031 180.203125 249.402344 179.847656 C 249.84375 179.496094 250.714844 178.96875 251.335938 178.679688 C 253.433594 177.703125 258.121094 176.773438 258.632812 177.230469 C 258.917969 177.488281 258.644531 178.066406 258.042969 178.488281 Z M 246.929688 181.578125 C 247.574219 179.195312 248.015625 177.109375 247.917969 176.917969 C 247.882812 176.84375 247.203125 176.519531 246.414062 176.203125 C 245.621094 175.882812 244.515625 175.34375 243.957031 175.003906 C 242.746094 174.269531 242.710938 174.296875 242.558594 176.070312 L 242.457031 177.253906 L 243.667969 179.253906 C 244.335938 180.355469 245.148438 181.816406 245.46875 182.5 C 245.792969 183.183594 246.09375 183.769531 246.144531 183.796875 C 246.289062 183.882812 246.367188 183.664062 246.929688 181.578125 Z M 248.871094 170.324219 C 249.148438 166.867188 249.15625 162.179688 248.890625 161.832031 C 248.824219 161.746094 248.460938 161.605469 248.085938 161.523438 C 247.035156 161.296875 245.570312 160.660156 244.222656 159.847656 C 243.554688 159.4375 242.945312 159.136719 242.871094 159.175781 C 242.796875 159.210938 242.8125 159.972656 242.902344 160.871094 C 243.058594 162.394531 243.207031 165.203125 243.230469 167.03125 C 243.242188 167.722656 243.347656 167.953125 244.007812 168.726562 C 245.164062 170.082031 246.335938 171.761719 247.238281 173.363281 C 247.6875 174.15625 248.117188 174.84375 248.195312 174.890625 C 248.398438 175.015625 248.617188 173.546875 248.871094 170.324219 Z M 248.34375 156.121094 C 247.960938 153.820312 247.441406 151.457031 246.832031 149.25 L 246.378906 147.621094 L 245.359375 146.890625 C 243.195312 145.34375 242.25 142.769531 242.523438 139.148438 C 242.609375 138.054688 242.253906 137.304688 239.78125 133.335938 C 235.960938 127.207031 231.304688 122.082031 225.152344 117.230469 C 223.152344 115.652344 216.042969 111.398438 213.523438 110.273438 C 203.039062 105.589844 191.71875 103.882812 180.617188 105.308594 C 178.277344 105.609375 175.378906 106.148438 175.027344 106.347656 C 174.6875 106.539062 174.78125 106.539062 177.09375 106.359375 C 187.753906 105.519531 197.558594 107.265625 207.871094 111.835938 C 210.386719 112.949219 216.972656 116.882812 218.871094 118.402344 C 225.464844 123.6875 229.847656 128.441406 233.644531 134.429688 C 236.539062 139 238.472656 143.078125 240.214844 148.300781 C 240.339844 148.667969 240.996094 149.570312 241.855469 150.554688 C 242.644531 151.460938 244.40625 153.605469 245.769531 155.328125 C 247.132812 157.046875 248.332031 158.507812 248.4375 158.570312 C 248.71875 158.742188 248.703125 158.296875 248.34375 156.121094 Z M 129.832031 185.324219 C 128.992188 182.925781 128.183594 180.003906 127.691406 177.617188 C 127.441406 176.394531 127.207031 175.355469 127.171875 175.308594 C 127.136719 175.257812 126.691406 175.894531 126.1875 176.722656 C 125.589844 177.699219 125.007812 178.46875 124.519531 178.921875 L 123.773438 179.617188 L 124.558594 182.675781 C 125.378906 185.882812 126.339844 188.734375 126.664062 188.933594 C 126.769531 188.996094 127.050781 188.886719 127.285156 188.6875 C 127.523438 188.488281 128.28125 188.023438 128.976562 187.652344 C 129.667969 187.28125 130.261719 186.941406 130.292969 186.898438 C 130.328125 186.851562 130.117188 186.144531 129.832031 185.324219 Z M 126.554688 169.851562 C 126.46875 168.722656 126.382812 166.84375 126.367188 165.679688 C 126.355469 164.511719 126.335938 163.511719 126.324219 163.457031 C 126.289062 163.246094 125.835938 163.609375 125.339844 164.242188 C 125.058594 164.601562 124.304688 165.242188 123.664062 165.667969 L 122.5 166.441406 L 122.519531 168.191406 C 122.542969 170.386719 122.84375 174.21875 123.007812 174.40625 C 123.128906 174.542969 126.378906 172.441406 126.605469 172.082031 C 126.667969 171.980469 126.644531 170.976562 126.554688 169.851562 Z M 126.640625 159.089844 C 126.722656 158.113281 126.875 156.765625 126.980469 156.09375 C 127.085938 155.417969 127.164062 154.757812 127.148438 154.617188 C 127.132812 154.433594 126.671875 154.476562 125.457031 154.777344 C 124.539062 155 123.765625 155.222656 123.738281 155.273438 C 123.550781 155.578125 122.726562 161.664062 122.8125 162.082031 C 122.851562 162.273438 126.164062 161.351562 126.332031 161.105469 C 126.421875 160.972656 126.558594 160.066406 126.640625 159.089844 Z M 127.859375 151.351562 C 129.816406 142.011719 134.890625 131.972656 141.488281 124.394531 C 142.171875 123.609375 142.726562 122.929688 142.714844 122.886719 C 142.65625 122.640625 140.328125 124.796875 138.316406 126.964844 C 133.253906 132.421875 129.003906 139.324219 126.339844 146.417969 C 125.449219 148.796875 124.539062 151.667969 124.597656 151.921875 C 124.644531 152.136719 127.535156 152.488281 127.652344 152.296875 C 127.660156 152.289062 127.75 151.863281 127.859375 151.351562 Z M 127.859375 151.351562 " fill-opacity="1" fill-rule="nonzero"/></g></g></g><g fill="#ffffff" fill-opacity="1"><g transform="translate(120.356905, 281.795168)"><g><path d="M 6.25 0.203125 C 4.675781 0.191406 3.390625 -0.3125 2.390625 -1.3125 C 1.398438 -2.3125 0.90625 -3.625 0.90625 -5.25 C 0.90625 -6.882812 1.398438 -8.203125 2.390625 -9.203125 C 3.390625 -10.203125 4.707031 -10.703125 6.34375 -10.703125 C 7.6875 -10.703125 8.875 -10.363281 9.90625 -9.6875 L 10.203125 -7.578125 L 10.0625 -7.578125 C 9.84375 -8.429688 9.394531 -9.09375 8.71875 -9.5625 C 8.050781 -10.03125 7.257812 -10.265625 6.34375 -10.265625 C 5.03125 -10.265625 3.984375 -9.804688 3.203125 -8.890625 C 2.421875 -7.984375 2.03125 -6.78125 2.03125 -5.28125 C 2.03125 -3.78125 2.414062 -2.570312 3.1875 -1.65625 C 3.957031 -0.738281 4.976562 -0.265625 6.25 -0.234375 C 7.375 -0.234375 8.3125 -0.539062 9.0625 -1.15625 C 9.875 -1.8125 10.363281 -2.882812 10.53125 -4.375 L 10.65625 -4.375 L 10.46875 -2.03125 C 9.5625 -0.539062 8.15625 0.203125 6.25 0.203125 Z M 6.25 0.203125 "/></g></g></g><g fill="#ffffff" fill-opacity="1"><g transform="translate(131.95189, 281.795168)"><g><path d="M 2.203125 -9.1875 C 3.273438 -10.195312 4.660156 -10.703125 6.359375 -10.703125 C 8.066406 -10.703125 9.457031 -10.195312 10.53125 -9.1875 C 11.601562 -8.1875 12.140625 -6.875 12.140625 -5.25 C 12.140625 -3.625 11.601562 -2.304688 10.53125 -1.296875 C 9.457031 -0.296875 8.066406 0.203125 6.359375 0.203125 C 4.660156 0.203125 3.273438 -0.296875 2.203125 -1.296875 C 1.128906 -2.304688 0.59375 -3.625 0.59375 -5.25 C 0.59375 -6.875 1.128906 -8.1875 2.203125 -9.1875 Z M 3.015625 -1.609375 C 3.867188 -0.691406 4.984375 -0.234375 6.359375 -0.234375 C 7.742188 -0.234375 8.859375 -0.691406 9.703125 -1.609375 C 10.546875 -2.535156 10.96875 -3.75 10.96875 -5.25 C 10.96875 -6.75 10.546875 -7.957031 9.703125 -8.875 C 8.859375 -9.800781 7.742188 -10.265625 6.359375 -10.265625 C 4.984375 -10.265625 3.867188 -9.800781 3.015625 -8.875 C 2.171875 -7.957031 1.75 -6.75 1.75 -5.25 C 1.75 -3.75 2.171875 -2.535156 3.015625 -1.609375 Z M 3.015625 -1.609375 "/></g></g></g><g fill="#ffffff" fill-opacity="1"><g transform="translate(144.866884, 281.795168)"><g><path d="M 11.671875 -10.34375 C 11.421875 -10.34375 11.203125 -10.253906 11.015625 -10.078125 C 10.835938 -9.910156 10.742188 -9.703125 10.734375 -9.453125 L 10.734375 -1.703125 C 10.734375 -1.128906 10.769531 -0.582031 10.84375 -0.0625 L 10.875 0.203125 L 10.734375 0.203125 L 2.5625 -8.515625 L 2.5625 -1.046875 C 2.5625 -0.796875 2.648438 -0.582031 2.828125 -0.40625 C 3.015625 -0.238281 3.234375 -0.15625 3.484375 -0.15625 L 3.765625 -0.15625 L 3.765625 0 L 0.671875 0 L 0.671875 -0.15625 L 0.953125 -0.15625 C 1.203125 -0.15625 1.414062 -0.238281 1.59375 -0.40625 C 1.78125 -0.582031 1.875 -0.800781 1.875 -1.0625 L 1.875 -8.84375 C 1.875 -9.457031 1.835938 -10.003906 1.765625 -10.484375 L 1.734375 -10.71875 L 1.890625 -10.71875 L 10.0625 -2 L 10.0625 -9.4375 C 10.050781 -9.695312 9.957031 -9.910156 9.78125 -10.078125 C 9.601562 -10.253906 9.390625 -10.34375 9.140625 -10.34375 L 8.84375 -10.34375 L 8.84375 -10.5 L 11.9375 -10.5 L 11.9375 -10.34375 Z M 11.671875 -10.34375 "/></g></g></g><g fill="#ffffff" fill-opacity="1"><g transform="translate(157.676864, 281.795168)"><g><path d="M 0.921875 -0.609375 C 0.890625 -0.753906 0.875 -1.023438 0.875 -1.421875 C 0.875 -1.828125 0.945312 -2.253906 1.09375 -2.703125 L 1.234375 -2.703125 C 1.222656 -2.585938 1.21875 -2.476562 1.21875 -2.375 C 1.21875 -1.757812 1.398438 -1.25 1.765625 -0.84375 C 2.140625 -0.4375 2.628906 -0.234375 3.234375 -0.234375 C 3.867188 -0.234375 4.390625 -0.421875 4.796875 -0.796875 C 5.203125 -1.179688 5.40625 -1.660156 5.40625 -2.234375 C 5.40625 -2.816406 5.207031 -3.285156 4.8125 -3.640625 L 1.9375 -6.3125 C 1.394531 -6.8125 1.125 -7.414062 1.125 -8.125 C 1.125 -8.832031 1.359375 -9.4375 1.828125 -9.9375 C 2.304688 -10.445312 2.953125 -10.703125 3.765625 -10.703125 C 4.140625 -10.703125 4.570312 -10.65625 5.0625 -10.5625 L 5.640625 -10.5625 L 5.640625 -8.71875 L 5.5 -8.71875 C 5.5 -9.1875 5.335938 -9.5625 5.015625 -9.84375 C 4.691406 -10.125 4.273438 -10.265625 3.765625 -10.265625 C 3.253906 -10.265625 2.828125 -10.09375 2.484375 -9.75 C 2.140625 -9.40625 1.96875 -8.976562 1.96875 -8.46875 C 1.96875 -7.957031 2.164062 -7.519531 2.5625 -7.15625 L 5.515625 -4.421875 C 6.015625 -3.960938 6.265625 -3.332031 6.265625 -2.53125 C 6.265625 -1.726562 6.007812 -1.070312 5.5 -0.5625 C 4.988281 -0.0507812 4.3125 0.203125 3.46875 0.203125 C 3.03125 0.203125 2.5625 0.132812 2.0625 0 C 1.5625 -0.125 1.179688 -0.328125 0.921875 -0.609375 Z M 0.921875 -0.609375 "/></g></g></g><g fill="#ffffff" fill-opacity="1"><g transform="translate(165.011857, 281.795168)"><g><path d="M 8.828125 -9.171875 C 8.828125 -9.410156 8.742188 -9.613281 8.578125 -9.78125 C 8.410156 -9.957031 8.210938 -10.050781 7.984375 -10.0625 L 5.125 -10.0625 L 5.125 -1.078125 C 5.132812 -0.816406 5.234375 -0.597656 5.421875 -0.421875 C 5.609375 -0.242188 5.832031 -0.15625 6.09375 -0.15625 L 6.28125 -0.15625 L 6.28125 0 L 3 0 L 3 -0.15625 L 3.1875 -0.15625 C 3.445312 -0.15625 3.671875 -0.242188 3.859375 -0.421875 C 4.046875 -0.597656 4.144531 -0.8125 4.15625 -1.0625 L 4.15625 -10.0625 L 1.3125 -10.0625 C 1.0625 -10.050781 0.851562 -9.957031 0.6875 -9.78125 C 0.53125 -9.613281 0.453125 -9.410156 0.453125 -9.171875 L 0.453125 -8.90625 L 0.296875 -8.890625 L 0.296875 -10.78125 C 0.453125 -10.71875 0.710938 -10.65625 1.078125 -10.59375 C 1.453125 -10.539062 1.789062 -10.515625 2.09375 -10.515625 L 7.171875 -10.515625 C 7.660156 -10.515625 8.066406 -10.550781 8.390625 -10.625 C 8.710938 -10.695312 8.910156 -10.75 8.984375 -10.78125 L 8.984375 -8.890625 L 8.828125 -8.90625 Z M 8.828125 -9.171875 "/></g></g></g><g fill="#ffffff" fill-opacity="1"><g transform="translate(174.476847, 281.795168)"><g><path d="M 3.984375 -10.03125 L 3.03125 -10.03125 L 3.03125 -1.09375 C 3.03125 -0.832031 3.117188 -0.609375 3.296875 -0.421875 C 3.484375 -0.242188 3.710938 -0.15625 3.984375 -0.15625 L 4.171875 -0.15625 L 4.1875 0 L 0.90625 0 L 0.90625 -0.15625 L 1.09375 -0.15625 C 1.351562 -0.15625 1.578125 -0.242188 1.765625 -0.421875 C 1.953125 -0.597656 2.050781 -0.816406 2.0625 -1.078125 L 2.0625 -9.40625 C 2.050781 -9.664062 1.953125 -9.882812 1.765625 -10.0625 C 1.578125 -10.25 1.351562 -10.34375 1.09375 -10.34375 L 0.90625 -10.34375 L 0.90625 -10.5 L 4.953125 -10.5 C 5.859375 -10.5 6.570312 -10.242188 7.09375 -9.734375 C 7.613281 -9.234375 7.875 -8.578125 7.875 -7.765625 C 7.875 -6.960938 7.625 -6.269531 7.125 -5.6875 C 6.632812 -5.101562 6.035156 -4.8125 5.328125 -4.8125 C 5.472656 -4.738281 5.648438 -4.597656 5.859375 -4.390625 C 6.066406 -4.191406 6.25 -3.984375 6.40625 -3.765625 C 7.257812 -2.535156 7.816406 -1.773438 8.078125 -1.484375 C 8.335938 -1.203125 8.523438 -1.007812 8.640625 -0.90625 C 8.753906 -0.800781 8.875 -0.695312 9 -0.59375 C 9.125 -0.5 9.253906 -0.421875 9.390625 -0.359375 C 9.679688 -0.222656 9.988281 -0.15625 10.3125 -0.15625 L 10.3125 0 L 9.5 0 C 9.0625 0 8.65625 -0.078125 8.28125 -0.234375 C 7.914062 -0.390625 7.640625 -0.546875 7.453125 -0.703125 C 7.273438 -0.867188 7.117188 -1.03125 6.984375 -1.1875 C 6.847656 -1.34375 6.472656 -1.859375 5.859375 -2.734375 C 5.253906 -3.617188 4.898438 -4.125 4.796875 -4.25 C 4.703125 -4.375 4.597656 -4.5 4.484375 -4.625 C 4.160156 -4.957031 3.84375 -5.125 3.53125 -5.125 L 3.53125 -5.28125 C 3.601562 -5.269531 3.703125 -5.265625 3.828125 -5.265625 C 3.960938 -5.265625 4.125 -5.269531 4.3125 -5.28125 C 5.5625 -5.3125 6.34375 -5.832031 6.65625 -6.84375 C 6.71875 -7.039062 6.75 -7.226562 6.75 -7.40625 C 6.75 -7.582031 6.75 -7.691406 6.75 -7.734375 C 6.726562 -8.410156 6.550781 -8.953125 6.21875 -9.359375 C 5.894531 -9.765625 5.453125 -9.984375 4.890625 -10.015625 C 4.648438 -10.023438 4.347656 -10.03125 3.984375 -10.03125 Z M 3.984375 -10.03125 "/></g></g></g><g fill="#ffffff" fill-opacity="1"><g transform="translate(184.826843, 281.795168)"><g><path d="M 11.03125 -10.34375 L 10.78125 -10.34375 C 10.570312 -10.34375 10.390625 -10.273438 10.234375 -10.140625 C 10.078125 -10.003906 9.992188 -9.835938 9.984375 -9.640625 L 9.984375 -3.703125 C 9.984375 -2.535156 9.613281 -1.59375 8.875 -0.875 C 8.132812 -0.15625 7.148438 0.203125 5.921875 0.203125 C 4.691406 0.203125 3.691406 -0.148438 2.921875 -0.859375 C 2.160156 -1.578125 1.78125 -2.519531 1.78125 -3.6875 L 1.78125 -9.59375 C 1.78125 -9.894531 1.648438 -10.117188 1.390625 -10.265625 C 1.273438 -10.316406 1.140625 -10.34375 0.984375 -10.34375 L 0.75 -10.34375 L 0.75 -10.5 L 3.796875 -10.5 L 3.796875 -10.34375 L 3.5625 -10.34375 C 3.332031 -10.34375 3.144531 -10.273438 3 -10.140625 C 2.851562 -10.003906 2.773438 -9.832031 2.765625 -9.625 L 2.765625 -3.90625 C 2.765625 -2.8125 3.054688 -1.925781 3.640625 -1.25 C 4.222656 -0.582031 5.003906 -0.25 5.984375 -0.25 C 6.960938 -0.25 7.753906 -0.566406 8.359375 -1.203125 C 8.972656 -1.835938 9.28125 -2.671875 9.28125 -3.703125 L 9.28125 -9.625 C 9.269531 -9.832031 9.1875 -10.003906 9.03125 -10.140625 C 8.882812 -10.273438 8.703125 -10.34375 8.484375 -10.34375 L 8.25 -10.34375 L 8.25 -10.5 L 11.03125 -10.5 Z M 11.03125 -10.34375 "/></g></g></g><g fill="#ffffff" fill-opacity="1"><g transform="translate(196.79683, 281.795168)"><g><path d="M 6.25 0.203125 C 4.675781 0.191406 3.390625 -0.3125 2.390625 -1.3125 C 1.398438 -2.3125 0.90625 -3.625 0.90625 -5.25 C 0.90625 -6.882812 1.398438 -8.203125 2.390625 -9.203125 C 3.390625 -10.203125 4.707031 -10.703125 6.34375 -10.703125 C 7.6875 -10.703125 8.875 -10.363281 9.90625 -9.6875 L 10.203125 -7.578125 L 10.0625 -7.578125 C 9.84375 -8.429688 9.394531 -9.09375 8.71875 -9.5625 C 8.050781 -10.03125 7.257812 -10.265625 6.34375 -10.265625 C 5.03125 -10.265625 3.984375 -9.804688 3.203125 -8.890625 C 2.421875 -7.984375 2.03125 -6.78125 2.03125 -5.28125 C 2.03125 -3.78125 2.414062 -2.570312 3.1875 -1.65625 C 3.957031 -0.738281 4.976562 -0.265625 6.25 -0.234375 C 7.375 -0.234375 8.3125 -0.539062 9.0625 -1.15625 C 9.875 -1.8125 10.363281 -2.882812 10.53125 -4.375 L 10.65625 -4.375 L 10.46875 -2.03125 C 9.5625 -0.539062 8.15625 0.203125 6.25 0.203125 Z M 6.25 0.203125 "/></g></g></g><g fill="#ffffff" fill-opacity="1"><g transform="translate(208.391817, 281.795168)"><g><path d="M 8.828125 -9.171875 C 8.828125 -9.410156 8.742188 -9.613281 8.578125 -9.78125 C 8.410156 -9.957031 8.210938 -10.050781 7.984375 -10.0625 L 5.125 -10.0625 L 5.125 -1.078125 C 5.132812 -0.816406 5.234375 -0.597656 5.421875 -0.421875 C 5.609375 -0.242188 5.832031 -0.15625 6.09375 -0.15625 L 6.28125 -0.15625 L 6.28125 0 L 3 0 L 3 -0.15625 L 3.1875 -0.15625 C 3.445312 -0.15625 3.671875 -0.242188 3.859375 -0.421875 C 4.046875 -0.597656 4.144531 -0.8125 4.15625 -1.0625 L 4.15625 -10.0625 L 1.3125 -10.0625 C 1.0625 -10.050781 0.851562 -9.957031 0.6875 -9.78125 C 0.53125 -9.613281 0.453125 -9.410156 0.453125 -9.171875 L 0.453125 -8.90625 L 0.296875 -8.890625 L 0.296875 -10.78125 C 0.453125 -10.71875 0.710938 -10.65625 1.078125 -10.59375 C 1.453125 -10.539062 1.789062 -10.515625 2.09375 -10.515625 L 7.171875 -10.515625 C 7.660156 -10.515625 8.066406 -10.550781 8.390625 -10.625 C 8.710938 -10.695312 8.910156 -10.75 8.984375 -10.78125 L 8.984375 -8.890625 L 8.828125 -8.90625 Z M 8.828125 -9.171875 "/></g></g></g><g fill="#ffffff" fill-opacity="1"><g transform="translate(217.856807, 281.795168)"><g><path d="M 1.09375 -0.15625 C 1.351562 -0.15625 1.578125 -0.242188 1.765625 -0.421875 C 1.953125 -0.609375 2.050781 -0.832031 2.0625 -1.09375 L 2.0625 -9.421875 C 2.050781 -9.679688 1.953125 -9.898438 1.765625 -10.078125 C 1.578125 -10.253906 1.351562 -10.34375 1.09375 -10.34375 L 0.90625 -10.34375 L 0.90625 -10.5 L 4.1875 -10.5 L 4.1875 -10.34375 L 3.984375 -10.34375 C 3.722656 -10.34375 3.5 -10.253906 3.3125 -10.078125 C 3.132812 -9.898438 3.039062 -9.679688 3.03125 -9.421875 L 3.03125 -1.09375 C 3.03125 -0.832031 3.125 -0.609375 3.3125 -0.421875 C 3.5 -0.242188 3.722656 -0.15625 3.984375 -0.15625 L 4.1875 -0.15625 L 4.1875 0 L 0.90625 0 L 0.90625 -0.15625 Z M 1.09375 -0.15625 "/></g></g></g><g fill="#ffffff" fill-opacity="1"><g transform="translate(223.121798, 281.795168)"><g><path d="M 2.203125 -9.1875 C 3.273438 -10.195312 4.660156 -10.703125 6.359375 -10.703125 C 8.066406 -10.703125 9.457031 -10.195312 10.53125 -9.1875 C 11.601562 -8.1875 12.140625 -6.875 12.140625 -5.25 C 12.140625 -3.625 11.601562 -2.304688 10.53125 -1.296875 C 9.457031 -0.296875 8.066406 0.203125 6.359375 0.203125 C 4.660156 0.203125 3.273438 -0.296875 2.203125 -1.296875 C 1.128906 -2.304688 0.59375 -3.625 0.59375 -5.25 C 0.59375 -6.875 1.128906 -8.1875 2.203125 -9.1875 Z M 3.015625 -1.609375 C 3.867188 -0.691406 4.984375 -0.234375 6.359375 -0.234375 C 7.742188 -0.234375 8.859375 -0.691406 9.703125 -1.609375 C 10.546875 -2.535156 10.96875 -3.75 10.96875 -5.25 C 10.96875 -6.75 10.546875 -7.957031 9.703125 -8.875 C 8.859375 -9.800781 7.742188 -10.265625 6.359375 -10.265625 C 4.984375 -10.265625 3.867188 -9.800781 3.015625 -8.875 C 2.171875 -7.957031 1.75 -6.75 1.75 -5.25 C 1.75 -3.75 2.171875 -2.535156 3.015625 -1.609375 Z M 3.015625 -1.609375 "/></g></g></g><g fill="#ffffff" fill-opacity="1"><g transform="translate(236.036787, 281.795168)"><g><path d="M 11.671875 -10.34375 C 11.421875 -10.34375 11.203125 -10.253906 11.015625 -10.078125 C 10.835938 -9.910156 10.742188 -9.703125 10.734375 -9.453125 L 10.734375 -1.703125 C 10.734375 -1.128906 10.769531 -0.582031 10.84375 -0.0625 L 10.875 0.203125 L 10.734375 0.203125 L 2.5625 -8.515625 L 2.5625 -1.046875 C 2.5625 -0.796875 2.648438 -0.582031 2.828125 -0.40625 C 3.015625 -0.238281 3.234375 -0.15625 3.484375 -0.15625 L 3.765625 -0.15625 L 3.765625 0 L 0.671875 0 L 0.671875 -0.15625 L 0.953125 -0.15625 C 1.203125 -0.15625 1.414062 -0.238281 1.59375 -0.40625 C 1.78125 -0.582031 1.875 -0.800781 1.875 -1.0625 L 1.875 -8.84375 C 1.875 -9.457031 1.835938 -10.003906 1.765625 -10.484375 L 1.734375 -10.71875 L 1.890625 -10.71875 L 10.0625 -2 L 10.0625 -9.4375 C 10.050781 -9.695312 9.957031 -9.910156 9.78125 -10.078125 C 9.601562 -10.253906 9.390625 -10.34375 9.140625 -10.34375 L 8.84375 -10.34375 L 8.84375 -10.5 L 11.9375 -10.5 L 11.9375 -10.34375 Z M 11.671875 -10.34375 "/></g></g></g><g fill="#ffffff" fill-opacity="1"><g transform="translate(248.846764, 281.795168)"><g><path d="M 0.921875 -0.609375 C 0.890625 -0.753906 0.875 -1.023438 0.875 -1.421875 C 0.875 -1.828125 0.945312 -2.253906 1.09375 -2.703125 L 1.234375 -2.703125 C 1.222656 -2.585938 1.21875 -2.476562 1.21875 -2.375 C 1.21875 -1.757812 1.398438 -1.25 1.765625 -0.84375 C 2.140625 -0.4375 2.628906 -0.234375 3.234375 -0.234375 C 3.867188 -0.234375 4.390625 -0.421875 4.796875 -0.796875 C 5.203125 -1.179688 5.40625 -1.660156 5.40625 -2.234375 C 5.40625 -2.816406 5.207031 -3.285156 4.8125 -3.640625 L 1.9375 -6.3125 C 1.394531 -6.8125 1.125 -7.414062 1.125 -8.125 C 1.125 -8.832031 1.359375 -9.4375 1.828125 -9.9375 C 2.304688 -10.445312 2.953125 -10.703125 3.765625 -10.703125 C 4.140625 -10.703125 4.570312 -10.65625 5.0625 -10.5625 L 5.640625 -10.5625 L 5.640625 -8.71875 L 5.5 -8.71875 C 5.5 -9.1875 5.335938 -9.5625 5.015625 -9.84375 C 4.691406 -10.125 4.273438 -10.265625 3.765625 -10.265625 C 3.253906 -10.265625 2.828125 -10.09375 2.484375 -9.75 C 2.140625 -9.40625 1.96875 -8.976562 1.96875 -8.46875 C 1.96875 -7.957031 2.164062 -7.519531 2.5625 -7.15625 L 5.515625 -4.421875 C 6.015625 -3.960938 6.265625 -3.332031 6.265625 -2.53125 C 6.265625 -1.726562 6.007812 -1.070312 5.5 -0.5625 C 4.988281 -0.0507812 4.3125 0.203125 3.46875 0.203125 C 3.03125 0.203125 2.5625 0.132812 2.0625 0 C 1.5625 -0.125 1.179688 -0.328125 0.921875 -0.609375 Z M 0.921875 -0.609375 "/></g></g></g><g fill="#ffffff" fill-opacity="1"><g transform="translate(129.211294, 260.503633)"><g><path d="M 22.203125 -19.703125 C 21.734375 -19.703125 21.328125 -19.535156 20.984375 -19.203125 C 20.640625 -18.867188 20.457031 -18.460938 20.4375 -17.984375 L 20.4375 -3.25 C 20.4375 -2.144531 20.503906 -1.097656 20.640625 -0.109375 L 20.703125 0.40625 L 20.4375 0.40625 L 4.875 -16.21875 L 4.875 -2 C 4.875 -1.519531 5.046875 -1.113281 5.390625 -0.78125 C 5.734375 -0.445312 6.144531 -0.28125 6.625 -0.28125 L 7.171875 -0.28125 L 7.171875 0 L 1.28125 0 L 1.28125 -0.28125 L 1.828125 -0.28125 C 2.304688 -0.28125 2.710938 -0.445312 3.046875 -0.78125 C 3.390625 -1.113281 3.5625 -1.53125 3.5625 -2.03125 L 3.5625 -16.84375 C 3.5625 -18 3.5 -19.035156 3.375 -19.953125 L 3.3125 -20.40625 L 3.59375 -20.40625 L 19.15625 -3.796875 L 19.15625 -17.953125 C 19.132812 -18.453125 18.953125 -18.867188 18.609375 -19.203125 C 18.265625 -19.535156 17.859375 -19.703125 17.390625 -19.703125 L 16.84375 -19.703125 L 16.84375 -19.984375 L 22.71875 -19.984375 L 22.71875 -19.703125 Z M 22.203125 -19.703125 "/></g></g></g><g fill="#ffffff" fill-opacity="1"><g transform="translate(151.989018, 260.503633)"><g><path d="M 20.4375 -0.28125 L 20.671875 -0.28125 L 20.671875 0 L 14.25 0 L 14.25 -0.28125 L 14.5 -0.28125 C 14.90625 -0.28125 15.207031 -0.410156 15.40625 -0.671875 C 15.601562 -0.929688 15.703125 -1.171875 15.703125 -1.390625 C 15.703125 -1.617188 15.664062 -1.847656 15.59375 -2.078125 L 13.765625 -6.9375 L 6.046875 -6.9375 L 4.140625 -2.0625 C 4.066406 -1.832031 4.03125 -1.609375 4.03125 -1.390625 C 4.03125 -1.171875 4.128906 -0.929688 4.328125 -0.671875 C 4.523438 -0.410156 4.828125 -0.28125 5.234375 -0.28125 L 5.484375 -0.28125 L 5.484375 0 L -0.25 0 L -0.25 -0.28125 L 0 -0.28125 C 0.476562 -0.28125 0.945312 -0.429688 1.40625 -0.734375 C 1.863281 -1.046875 2.234375 -1.492188 2.515625 -2.078125 L 8.96875 -17.4375 C 9.664062 -18.976562 10.015625 -19.957031 10.015625 -20.375 L 10.28125 -20.375 L 17.9375 -2.078125 C 18.195312 -1.492188 18.554688 -1.046875 19.015625 -0.734375 C 19.472656 -0.429688 19.945312 -0.28125 20.4375 -0.28125 Z M 6.390625 -7.796875 L 13.421875 -7.796875 L 10 -16.953125 Z M 6.390625 -7.796875 "/></g></g></g><g fill="#ffffff" fill-opacity="1"><g transform="translate(171.084576, 260.503633)"><g><path d="M 19.21875 -19.703125 L 18.8125 -19.703125 C 18.238281 -19.703125 17.703125 -19.539062 17.203125 -19.21875 C 16.703125 -18.90625 16.28125 -18.515625 15.9375 -18.046875 L 10.3125 -8.90625 L 10.3125 -2.078125 C 10.3125 -1.585938 10.484375 -1.164062 10.828125 -0.8125 C 11.179688 -0.457031 11.617188 -0.28125 12.140625 -0.28125 L 12.484375 -0.28125 L 12.484375 0 L 6.25 0 L 6.25 -0.28125 L 6.625 -0.28125 C 7.125 -0.28125 7.546875 -0.453125 7.890625 -0.796875 C 8.242188 -1.140625 8.429688 -1.5625 8.453125 -2.0625 L 8.453125 -8.9375 L 3 -18.046875 C 2.71875 -18.503906 2.3125 -18.894531 1.78125 -19.21875 C 1.257812 -19.539062 0.710938 -19.703125 0.140625 -19.703125 L -0.25 -19.703125 L -0.25 -19.984375 L 6.765625 -19.984375 L 6.765625 -19.703125 L 6.390625 -19.703125 C 5.972656 -19.703125 5.648438 -19.507812 5.421875 -19.125 C 5.304688 -18.914062 5.25 -18.710938 5.25 -18.515625 C 5.25 -18.316406 5.296875 -18.117188 5.390625 -17.921875 L 9.6875 -9.9375 L 14.25 -17.953125 C 14.34375 -18.140625 14.390625 -18.328125 14.390625 -18.515625 C 14.390625 -18.710938 14.320312 -18.914062 14.1875 -19.125 C 13.957031 -19.507812 13.632812 -19.703125 13.21875 -19.703125 L 12.875 -19.703125 L 12.875 -19.984375 L 19.21875 -19.984375 Z M 19.21875 -19.703125 "/></g></g></g><g fill="#ffffff" fill-opacity="1"><g transform="translate(188.724402, 260.503633)"><g><path d="M 2.078125 -0.28125 C 2.578125 -0.28125 3 -0.457031 3.34375 -0.8125 C 3.695312 -1.164062 3.882812 -1.585938 3.90625 -2.078125 L 3.90625 -18.0625 C 3.90625 -18.519531 3.722656 -18.90625 3.359375 -19.21875 C 3.003906 -19.539062 2.578125 -19.703125 2.078125 -19.703125 L 1.734375 -19.703125 L 1.71875 -19.984375 L 10.078125 -19.984375 C 10.671875 -19.984375 11.3125 -20.039062 12 -20.15625 C 12.695312 -20.269531 13.1875 -20.382812 13.46875 -20.5 L 13.46875 -16.90625 L 13.1875 -16.90625 L 13.1875 -17.40625 C 13.1875 -17.863281 13.03125 -18.253906 12.71875 -18.578125 C 12.40625 -18.898438 12.03125 -19.070312 11.59375 -19.09375 L 5.765625 -19.09375 L 5.765625 -10.28125 L 10.59375 -10.28125 C 10.96875 -10.300781 11.289062 -10.441406 11.5625 -10.703125 C 11.832031 -10.972656 11.96875 -11.304688 11.96875 -11.703125 L 11.96875 -12.109375 L 12.25 -12.109375 L 12.25 -7.59375 L 11.96875 -7.59375 L 11.96875 -8.015625 C 11.96875 -8.398438 11.835938 -8.722656 11.578125 -8.984375 C 11.316406 -9.253906 11 -9.398438 10.625 -9.421875 L 5.765625 -9.421875 L 5.765625 -0.890625 L 9.84375 -0.890625 C 11.257812 -0.890625 12.335938 -1.203125 13.078125 -1.828125 C 13.816406 -2.453125 14.4375 -3.382812 14.9375 -4.625 L 15.21875 -4.625 L 13.5625 0 L 1.71875 0 L 1.71875 -0.28125 Z M 2.078125 -0.28125 "/></g></g></g><g fill="#ffffff" fill-opacity="1"><g transform="translate(203.966533, 260.503633)"><g><path d="M 2.078125 -0.28125 C 2.578125 -0.28125 3 -0.457031 3.34375 -0.8125 C 3.695312 -1.164062 3.882812 -1.585938 3.90625 -2.078125 L 3.90625 -18.0625 C 3.90625 -18.519531 3.722656 -18.90625 3.359375 -19.21875 C 3.003906 -19.539062 2.578125 -19.703125 2.078125 -19.703125 L 1.734375 -19.703125 L 1.71875 -19.984375 L 10.078125 -19.984375 C 10.671875 -19.984375 11.3125 -20.039062 12 -20.15625 C 12.695312 -20.269531 13.1875 -20.382812 13.46875 -20.5 L 13.46875 -16.90625 L 13.1875 -16.90625 L 13.1875 -17.40625 C 13.1875 -17.863281 13.03125 -18.253906 12.71875 -18.578125 C 12.40625 -18.898438 12.03125 -19.070312 11.59375 -19.09375 L 5.765625 -19.09375 L 5.765625 -10.28125 L 10.59375 -10.28125 C 10.96875 -10.300781 11.289062 -10.441406 11.5625 -10.703125 C 11.832031 -10.972656 11.96875 -11.304688 11.96875 -11.703125 L 11.96875 -12.109375 L 12.25 -12.109375 L 12.25 -7.59375 L 11.96875 -7.59375 L 11.96875 -8.015625 C 11.96875 -8.398438 11.835938 -8.722656 11.578125 -8.984375 C 11.316406 -9.253906 11 -9.398438 10.625 -9.421875 L 5.765625 -9.421875 L 5.765625 -0.890625 L 9.84375 -0.890625 C 11.257812 -0.890625 12.335938 -1.203125 13.078125 -1.828125 C 13.816406 -2.453125 14.4375 -3.382812 14.9375 -4.625 L 15.21875 -4.625 L 13.5625 0 L 1.71875 0 L 1.71875 -0.28125 Z M 2.078125 -0.28125 "/></g></g></g><g fill="#ffffff" fill-opacity="1"><g transform="translate(219.20867, 260.503633)"><g><path d="M 25.6875 -0.28125 L 26.15625 -0.28125 L 26.15625 0 L 19.953125 0 L 19.953125 -0.25 L 20.375 -0.25 C 20.707031 -0.25 20.984375 -0.375 21.203125 -0.625 C 21.429688 -0.875 21.53125 -1.160156 21.5 -1.484375 L 20.21875 -15.84375 L 14.21875 -2.515625 C 13.6875 -1.347656 13.363281 -0.375 13.25 0.40625 L 12.953125 0.40625 L 5.65625 -15.4375 L 4.421875 -1.484375 C 4.390625 -1.179688 4.484375 -0.898438 4.703125 -0.640625 C 4.929688 -0.378906 5.207031 -0.25 5.53125 -0.25 L 5.96875 -0.25 L 5.96875 0 L 0.421875 0 L 0.421875 -0.28125 L 0.890625 -0.28125 C 1.421875 -0.28125 1.878906 -0.441406 2.265625 -0.765625 C 2.660156 -1.085938 2.894531 -1.523438 2.96875 -2.078125 L 5.109375 -20.375 L 5.390625 -20.375 L 13.359375 -3.171875 L 21.15625 -20.375 L 21.40625 -20.375 L 23.609375 -2.078125 C 23.679688 -1.523438 23.914062 -1.085938 24.3125 -0.765625 C 24.71875 -0.441406 25.175781 -0.28125 25.6875 -0.28125 Z M 25.6875 -0.28125 "/></g></g></g><g fill="#ffffff" fill-opacity="1"><g transform="translate(164.316752, 168.195469)"><g><path d="M 27.589844 -27.589844 C 27.589844 -32.988281 28.660156 -34.464844 30.898438 -34.363281 L 30.898438 -34.820312 L 23.417969 -34.820312 L 23.417969 -34.363281 C 25.65625 -34.464844 26.726562 -32.988281 26.726562 -27.589844 L 26.726562 -10.691406 C 22.601562 -19.292969 15.015625 -27.640625 7.535156 -34.820312 L 0 -34.820312 L 0 -34.363281 C 2.1875 -34.464844 3.257812 -32.988281 3.257812 -27.589844 L 3.257812 -7.179688 C 3.257812 -1.78125 2.1875 -0.355469 0 -0.457031 L 0 0 L 7.433594 0 L 7.433594 -0.457031 C 5.242188 -0.355469 4.175781 -1.78125 4.175781 -7.179688 L 4.175781 -31.917969 C 13.386719 -23.214844 22.652344 -12.472656 25.960938 0 L 27.589844 0 Z M 27.589844 -27.589844 "/></g></g></g><g fill="#ffffff" fill-opacity="1"><g transform="translate(177.411247, 189.425901)"><g><path d="M 30.542969 -30.136719 C 27.132812 -33.089844 22.296875 -34.820312 17.5625 -34.820312 C 7.890625 -34.820312 0 -27.183594 0 -17.410156 C 0 -7.433594 7.585938 0 17.5625 0 C 23.214844 0 28.609375 -2.597656 31.613281 -7.992188 L 31.257812 -8.246094 C 29.320312 -5.546875 26.675781 -3.816406 23.671875 -3.105469 C 16.035156 -1.273438 8.296875 -5.804688 5.652344 -13.132812 C 3.207031 -19.90625 4.074219 -30.085938 11.808594 -32.886719 C 17.15625 -34.820312 23.417969 -33.089844 28.660156 -25.199219 Z M 30.542969 -30.136719 "/></g></g></g></svg>